<?xml version="1.0" encoding="utf-8"?>
<!-- Generator: Adobe Illustrator 18.0.0, SVG Export Plug-In . SVG Version: 6.00 Build 0)  -->
<!DOCTYPE svg PUBLIC "-//W3C//DTD SVG 1.1//EN" "http://www.w3.org/Graphics/SVG/1.1/DTD/svg11.dtd">
<svg version="1.1" id="Capa_1" xmlns="http://www.w3.org/2000/svg" xmlns:xlink="http://www.w3.org/1999/xlink" x="0px" y="0px"
	 viewBox="0 0 135.2 135.1" enable-background="new 0 0 135.2 135.1" xml:space="preserve">
<g>
	<circle fill="#D1D3D4" cx="67.6" cy="67.5" r="67.4"/>
	<circle fill="#FFFFFF" cx="67.6" cy="69.3" r="65.7"/>
	<circle fill="#D1D3D4" cx="67.6" cy="67.5" r="47.7"/>
	<circle fill="#FFFFFF" cx="67.6" cy="68.8" r="46.5"/>
	<path fill="#03AEA6" d="M1.8,105.3c0,0,4.5,13.9,0,26c0,0,62-10.1,131,0c0,0-4.7-11.7,0-26C132.9,105.3,73,114.5,1.8,105.3z"/>
	<path fill="#FFFFFF" d="M77,117.9"/>
	<g>
		<path fill="#FFFFFF" d="M56.1,122.6c-1.2,0.3-1.2-0.7-1.2-0.7v-5.8l-2.6,0v5.3c0,0-0.6,1.1-1.2,1.1s-0.6-0.8-0.6-0.8v-8.8
			l-2.5,0.5v7.7c0,0-0.8,1.8-2.6,1.8s-1.9-1.2-1.9-1.2s-0.3-3.2,1.4-4.1c1.7-0.6,1.2,1.1,1.2,1.1s-0.3,0.8-1,1.4
			c-0.7,0.6-1.3,0.4-1.3,0.4s0.1,0.9,1.8,0c1.7-0.9,1.4-2.4,1.4-2.4s0-2-2.1-2c-2.1,0-2.9,1.5-3.4,2.7c-0.5,1.2-0.2,2.8-0.2,2.8
			s-0.1,0.9-0.9,0.9c-0.8,0-0.8-0.9-0.8-0.9v-4.5h1V116h-0.8v-2.6l-2.6,0.6v2.2c0,0,0,0.1-0.5,0c-0.5-0.1,0.3,0.9,0.3,0.9v4.3
			c0,0,0,0.9-0.9,0.9c-0.8,0-0.6-0.8-0.6-0.8V118c0,0-0.3-1.8-1.9-1.8c-1.7,0-2.3,0.6-2.3,0.6v-0.6h-2.6c0,0,0.8,3.2,0,5.2
			c-0.8,1.8-1.5,0.3-1.7,0c-0.1-0.3,0-5.2,0-5.2h-2.6c0,0,0,3.7,0,5.7c0,2,1.8,2.2,1.8,2.2s0,0,1.1,0c1.1,0,1.5-0.9,1.5-0.9v0.9
			l2.5,0v-5.7c0,0,0-0.8,0.8-0.8c0.8,0,0.7,0.7,0.7,0.7s-0.1,3.1,0,3.8c0.1,0.7,0.7,2.3,2.5,2.3c1.7,0,2.1-1,2.1-1
			c2.3,2.5,4.4-0.3,4.4-0.3c1.7,2.9,6.2,0.1,6.2,0.1c1.1,1.1,2.2,1,2.2,1c2.1,0.1,2.4-1,2.4-1c0.8,2,3.4,0.4,3.4,0.4
			S57.5,122.1,56.1,122.6z"/>
		<circle fill="#FFFFFF" cx="25.7" cy="114.1" r="1.5"/>
		<circle fill="#FFFFFF" cx="53.7" cy="114.1" r="1.5"/>
		<rect x="57" y="119" fill="#FFFFFF" width="3.6" height="1.7"/>
		<path fill="#FFFFFF" d="M70.4,122.7c0,0,0.4-2.4,0-4.1c-0.3-1.7-2.8-1.4-2.8-1.4l3.3-4.9h-1.7l-2.7,4.3v-4.3c0,0-0.6,0-1.1,0
			c-1.4,0.2-2.1,0.6-2.1,0.6s-2.4,1.1-2.4,3.3c0,2.1,2.4,1.9,2.4,1.9s-0.8-1.7-0.7-2.8c0.1-1.1,1.4-1.6,1.4-1.6v10.3h2.7v-5.7
			c1.7,0,1.6,1.2,1.6,1.2s-0.1,1.7-0.1,3.3c0,1.6,0.9,1.6,0.9,1.6s3.1-0.2,2.2-0.4C70.4,123.8,70.4,122.7,70.4,122.7z"/>
		<polygon fill="#FFFFFF" points="72,115.1 73,115.1 74,112.2 72.3,112.2 		"/>
		<polygon fill="#FFFFFF" points="79.8,112.2 78.1,112.2 77.7,115.1 78.8,115.1 		"/>
		<path fill="#FFFFFF" d="M93.8,116c-1.1-0.4-1.9,0.5-1.9,0.5v-3.8l-2.4,0.4v4.7c0,0-0.1,0.1-0.1,0.1c-0.4,0.4-0.9,0.5-1.4,0.5
			c-0.3-1.5-1.1-2.6-1.8-2.7c0,0-3.2-0.9-4.1,2.3c0,0.1,0,0.1,0,0.2c-0.4,0.1-0.7,0.2-1,0.2c-0.3-1.5-1.1-2.6-1.8-2.7
			c0,0-3.2-0.9-4.1,2.3c-0.9,3.2,0.6,5.1,0.6,5.1s1,1.1,2.4,0.9c1.4-0.1,2.6-2.3,2.6-2.3s0.5-0.9,0.4-2.5c0.3,0,0.5,0,0.8-0.1
			c-0.3,2.5,0.8,3.9,0.8,3.9s1,1.1,2.4,0.9c1.4-0.1,2.6-2.3,2.6-2.3s0.5-0.9,0.4-2.5c0.6,0,1.2-0.3,1.4-0.4v2.9c0,0,0.3,1.2,1.6,2.1
			c1.3,0.9,2.6-0.1,2.6-0.1s1.1-0.7,2-2.8c0.9-2.1-0.3-3.7-0.3-3.7S94.9,116.5,93.8,116z M78.7,122.3c-0.4,0.4-0.7,0.4-0.7,0.4
			s-0.9-0.1-1-2.7c-0.1-2.6,1.3-2.9,1.3-2.9c1.1,0.1,0.7,0.8,0.7,0.8s-0.3,0.2-0.5,0.8c-0.3,0.6,0.6,0.4,0.8,1.2
			C79.6,120.6,79.2,121.7,78.7,122.3z M85.8,122.3c-0.5,0.6-0.6,0.3-0.6,0.3s-1,0-1.1-2.6c-0.1-2.6,1.3-2.9,1.3-2.9
			c1.1,0.1,0.7,0.8,0.7,0.8s-0.3,0.2-0.5,0.8c-0.3,0.6,0.6,0.4,0.8,1.2C86.7,120.6,86.2,121.7,85.8,122.3z M92.4,122.6
			c-0.6,0-0.6-0.8-0.6-0.8s-0.1-4.4,0-4.5c0.1-0.1,0.6-0.3,0.8-0.3c0.2,0,1.1,0.5,1.1,2.7C93.9,122,93,122.6,92.4,122.6z"/>
		<path fill="#FFFFFF" d="M110.5,122.4c0,0-0.6,1.1-1.6,0.2l0-4.6c0,0,0.1-1.7-1.4-1.8c-1.2,0-1.4,0.2-1.4,0.2s-0.8,0.3-1,0.6
			c-0.2,0.3-0.1-0.8-0.1-0.8h-2.4v5.1c-0.3,0.5-1.1,1.5-2.4,1.5c-1.6,0.1-1.8-0.7-1.9-1s-0.4-3.8,1.4-4.3c1.7-0.6,1.1,0.7,1.1,0.7
			s-0.2,1.1-0.9,1.7c-0.7,0.6-1.3,0.4-1.3,0.4s0.1,0.9,1.8,0c1.7-0.9,1.4-2.4,1.4-2.4s0-2-2.1-2c-2.1,0-2.9,1.5-3.4,2.7
			c-0.5,1.2-0.2,2.8-0.2,2.8s0.1,1,0.5,1.4c1.7,2.6,5.1,0.7,6,0.2v1.1h2.4v-5.6c0,0-0.2-1.3,0.9-1.3s0.8,2,0.8,2v3.2
			c0,0,0.3,1.7,2.1,1.7S110.5,122.4,110.5,122.4z"/>
	</g>
	<path fill="#03AEA6" d="M105.8,53.6c0-9.4-8.3-17.1-18.5-17.1c-1.7,0-3.4,0.2-5,0.6c-1.3-2.6-3.3-4.8-5.9-6.4
		c-7.9-4.9-18.5-2-23.9,6.3c-1.5-0.4-3-0.5-4.6-0.5c-10.2,0-18.5,7.7-18.5,17.1c0,8.2,6.2,15,14.5,16.7c-1.5,5.6-1.6,10.2-1.6,10.2
		c0,0.4,0,0.8,0,1.2c0,3.8,0.9,7.5,2.4,10.7c0,1.6,0.1,6.1,3.5,7.9c2.3,1.2,4,1.8,5.1,2c4,2.7,8.9,4.3,14.2,4.3c5.2,0,10-1.6,14-4.3
		c1-0.1,2.9-0.6,5.5-2c4.1-2.2,3.4-8.5,3.4-8.5L90.3,92c1.4-3.1,2.2-6.6,2.2-10.2c0-0.3,0.4-6.1-1-11.5
		C99.7,68.5,105.8,61.7,105.8,53.6z M45,76.8c1.4,0.5,6.5,2.2,13.4,2.2c8,0,11.5-3,20.3-3c5.6,0,9.3,1.4,11.3,2.4
		c0.1,1.9,0,3.1,0,3.3c0,5-1.7,9.7-4.5,13.4c-0.7,0-1.6-0.1-2.7-0.4c-4-0.9-5.3-5.2-9.6-5.2c-4.3,0-5.5,2.4-5.5,2.4
		s-0.1,0.1-0.2,0.2c-0.1-0.1-0.2-0.2-0.2-0.2s-1.2-2.4-5.5-2.4s-5.6,4.3-9.6,5.2c-1.3,0.3-2.3,0.4-3,0.4c-2.8-3.7-4.5-8.4-4.5-13.4
		c0-0.4,0-0.8,0-1.3C44.7,79.3,44.8,78.1,45,76.8z M58.6,102.5l1.7,0c0,0,4-0.6,7.1-4.3c0.1-0.1,0.1-0.1,0.2-0.2
		c0.1,0.1,0.1,0.1,0.2,0.2c3,3.7,7.1,4.3,7.1,4.3l1.3,0c-2.7,1.1-5.6,1.7-8.7,1.7C64.2,104.2,61.3,103.6,58.6,102.5z M90.9,68.4
		c-0.5-1.5-1.1-2.8-2-4l-2,0.4c1.6,4,2.4,7.8,2.7,10.8c-1.4-0.7-4.6-1.6-11-1.6c-10.2,0-13.2,3.3-20.3,3c-5.8-0.2-11.2-1.8-13-2.4
		c1.1-5.6,3.1-10.8,3.1-10.8c11.5-3.4,20.3-1.2,20.3-1.2l0.4-2.1c0,0-6.6-3.4-22.4,1.7c-1,2-1.8,4.1-2.4,6.1
		C37,67,31.5,60.9,31.5,53.6c0-8.4,7.3-15.2,16.4-15.2c5.6,0,10.5,2.6,13.5,6.5c0.5-0.4,1.1-0.8,1.7-1.2c-2.1-2.8-5.1-5-8.6-6.2
		c4.9-7,14.1-9.3,20.9-5.1c2.1,1.3,3.8,3.1,5,5.2c-3.3,1.3-6.1,3.3-8.1,6c0.6,0.4,1.1,0.8,1.7,1.2c3-4,7.9-6.5,13.5-6.5
		c9.1,0,16.4,6.8,16.4,15.2C103.7,60.8,98.2,66.9,90.9,68.4z"/>
</g>
</svg>
